<?xml version="1.0" encoding="UTF-8"?><svg id="_イヤー_2" xmlns="http://www.w3.org/2000/svg" viewBox="0 0 204.92 204.92"><defs><style>.cls-1{fill:#fff;}.cls-2{fill:#cfa65e;}.cls-3{fill:#070607;}</style></defs><g id="_イヤー_1-2"><g><rect class="cls-3" x="0" y="0" width="204.92" height="204.92" rx="102.46" ry="102.46"/><g><path class="cls-1" d="M159.45,139.97c.25,2.26,.69,5.76,3.38,6.64,1.82,.56,3.26,.56,3.88,.56,.31,0,.69,.06,.69,.38,0,.38-.19,.5-.94,.5-1.38,0-8.52-.19-10.83-.38-1.44-.13-1.75-.31-1.75-.63,0-.25,.13-.31,.44-.44,.44-.19,.38-1.13,.25-2.26l-3.01-32.69-15.53,32.94c-1.32,2.76-1.5,3.32-2.07,3.32-.44,0-.75-.63-1.94-2.88-1.63-3.07-7.01-13.9-7.33-14.53-.56-1.13-7.76-16.59-8.45-18.28l-2.57,29.49c-.06,1-.13,1.88-.13,2.94,0,1.57,.75,2.07,1.69,2.26,1.06,.25,1.88,.25,2.26,.25s.63,.13,.63,.31c0,.44-.31,.56-.94,.56-2.32,0-5.51-.19-6.01-.19-.56,0-3.57,.19-5.26,.19-.63,0-1.06-.06-1.06-.5,0-.25,.31-.38,.63-.38,.5,0,.94,0,1.88-.19,2.07-.38,2.19-2.63,2.51-5.2l4.51-40.7c.06-.69,.31-1.25,.69-1.25s.63,.25,.94,.94l19.16,39.39,18.41-39.32c.25-.56,.5-1,.94-1s.63,.5,.75,1.69l4.19,38.45Z"/><path class="cls-2" d="M76.11,116.81c0-6.51-1.21-9.16-2.77-12.66-.84-1.93-17.01-28.46-21.23-34.73-3.01-4.46-6.03-7.48-8.2-8.93-1.81-1.21-4.1-1.93-5.19-1.93-.6,0-1.21-.24-1.21-.84,0-.48,.48-.85,1.57-.85,2.29,0,11.33,.36,11.94,.36,.84,0,5.43-.36,10.13-.36,1.33,0,1.57,.36,1.57,.85s-.72,.6-1.81,1.08c-.96,.48-1.57,1.21-1.57,2.17,0,1.45,.6,2.89,1.57,4.7,1.93,3.5,20.02,34.61,22.19,38.11,2.29-5.07,17.61-31.48,20.02-35.46,1.57-2.53,2.05-4.58,2.05-6.15,0-1.69-.48-3.02-1.93-3.38-1.09-.36-1.81-.6-1.81-1.21,0-.48,.72-.72,1.93-.72,3.13,0,6.99,.36,7.96,.36,.72,0,9.41-.36,11.7-.36,.84,0,1.57,.24,1.57,.72,0,.6-.6,.96-1.57,.96-1.33,0-3.62,.48-5.55,1.69-2.41,1.45-3.74,2.9-6.39,6.15-3.98,4.82-20.87,33.17-23.04,38.35-1.81,4.34-1.81,8.08-1.81,12.06v10.37c0,1.93,0,6.99,.36,12.06,.24,3.5,1.33,6.15,4.94,6.64,1.69,.24,4.34,.48,5.43,.48,.72,0,.96,.36,.96,.72,0,.6-.6,.96-1.93,.96-6.63,0-14.23-.36-14.83-.36s-8.2,.36-11.82,.36c-1.33,0-1.93-.24-1.93-.96,0-.36,.24-.72,.96-.72,1.09,0,2.53-.24,3.62-.48,2.41-.49,3.5-3.14,3.74-6.64,.36-5.07,.36-10.13,.36-12.06v-10.37Z"/></g></g></g></svg>