<?xml version="1.0" encoding="UTF-8"?><svg id="_イヤー_2" xmlns="http://www.w3.org/2000/svg" viewBox="0 0 503.84 503.84"><defs><style>.cls-1{fill:#fff;}</style></defs><g id="_イヤー_1-2"><g><path class="cls-1" d="M0,337.22c0-56.87,0-113.74,0-170.61,.34-1.5,.87-2.98,.99-4.5,1.04-13.74,1.36-27.58,3.15-41.22,3.3-25.07,11.97-48.1,28.19-67.99,15.9-19.5,35.33-33.85,59.24-41.94C112.99,3.73,135.11,1.02,157.63,.97c2,0,3.99-.63,5.99-.97,58.53,0,117.06,0,175.6,0,1,.34,1.99,.92,3,.98,7.24,.41,14.54,.3,21.72,1.13,11.48,1.32,23.08,2.45,34.31,5.06,29.43,6.82,54.06,21.93,72.96,45.65,17.99,22.58,26.49,49.08,29.43,77.34,1.64,15.72,1.59,31.62,2.14,47.44,.23,6.47-.02,12.96,.08,19.44,.03,1.5,.63,3,.97,4.5v99.77c-.34,1.17-.94,2.32-.98,3.5-.72,21.13-1.11,42.27-2.11,63.39-.79,16.68-4.62,32.74-10.62,48.41-11.77,30.75-32.54,53.23-61.51,68.28-21.33,11.09-44.53,15.27-68.23,16.86-12.03,.8-24.11,.88-36.18,1.04-12.45,.17-24.91,0-37.37,.08-1.5,0-3,.63-4.5,.97h-62.86c-1.17-.34-2.33-.94-3.5-.98-26.94-.72-53.9-1.06-80.82-2.2-9.71-.41-19.56-1.85-28.98-4.27-27.21-7.01-51.23-19.5-69.95-41.39-11.23-13.12-19.65-27.55-25.24-43.71C3.38,389.25,.98,366.41,.97,343.22c0-2-.63-3.99-.97-5.99Zm251.39,119.74v-1c28.2,0,56.4-.1,84.6,.04,15.66,.08,31.21-.82,46.57-4.03,16.6-3.48,31.54-10.29,44.03-22.01,11.51-10.8,18.75-24.13,23.4-39.07,6.19-19.87,6.73-40.54,6.69-60.89-.1-62.55,2.28-125.13-1.66-187.65-.75-11.96-2.83-23.58-6.69-34.94-6.57-19.33-18.44-34.23-35.89-44.91-15.3-9.37-32.31-12.95-49.69-14.45-17.42-1.5-34.97-2.08-52.47-2.08-45.99,0-91.98,.65-137.97,.84-17.31,.07-34.58,.6-51.54,4.12-23.16,4.8-42.43,16.19-55.9,36.02-11.11,16.36-15.69,35.11-16.83,54.47-1.37,23.27-2.14,46.62-2.03,69.93,.22,47.42,1.25,94.84,1.83,142.27,.16,13.35,2.13,26.33,6,39.11,6.15,20.33,18.51,35.8,36.15,47.32,14.62,9.55,31.21,13.13,48.09,14.7,16.91,1.58,33.97,1.85,50.97,2.12,20.78,.34,41.56,.08,62.35,.08Z"/><path class="cls-1" d="M381.11,251.86c.3,70.38-57.38,131.77-134.34,129.2-67.78-2.27-125.38-56.88-124.77-130.91,.58-70.65,56.47-129.2,132.58-128.22,68.62,.88,126.9,57.15,126.54,129.94Zm-212.51-.27c-.31,46.43,36.99,83.17,82.66,83.28,46.15,.1,83.44-35.43,83.66-83.16,.21-46.27-36.28-80.41-77.76-83.15-51.21-3.38-89.76,39.31-88.56,83.04Z"/><path class="cls-1" d="M416.02,117.4c1.75,15.47-13.8,31.47-31.87,30.57-15.06-.75-29.61-14.65-29.1-31.37,.49-16.03,14.07-30.4,31.53-29.94,14.72,.39,30.93,13.54,29.43,30.75Z"/></g></g></svg>