<?xml version="1.0" encoding="UTF-8"?><svg id="_イヤー_2" xmlns="http://www.w3.org/2000/svg" viewBox="0 0 393.24 31.39"><defs><style>.cls-1{fill:#fff;}</style></defs><g id="_イヤー_1-2"><g><path class="cls-1" d="M10.47,22.45c0-1.77-.33-2.49-.75-3.44-.23-.52-4.62-7.72-5.76-9.43-.82-1.21-1.64-2.03-2.23-2.42-.49-.33-1.11-.52-1.41-.52-.16,0-.33-.07-.33-.23,0-.13,.13-.23,.43-.23,.62,0,3.08,.1,3.24,.1,.23,0,1.47-.1,2.75-.1,.36,0,.43,.1,.43,.23s-.2,.16-.49,.29c-.26,.13-.43,.33-.43,.59,0,.39,.16,.79,.43,1.28,.52,.95,5.43,9.39,6.02,10.34,.62-1.38,4.78-8.54,5.43-9.62,.42-.69,.56-1.24,.56-1.67,0-.46-.13-.82-.52-.92-.29-.1-.49-.16-.49-.33,0-.13,.2-.2,.52-.2,.85,0,1.9,.1,2.16,.1,.2,0,2.55-.1,3.17-.1,.23,0,.42,.07,.42,.2,0,.16-.16,.26-.42,.26-.36,0-.98,.13-1.51,.46-.65,.39-1.01,.79-1.73,1.67-1.08,1.31-5.66,9-6.25,10.41-.49,1.18-.49,2.19-.49,3.27v2.82c0,.52,0,1.9,.1,3.27,.07,.95,.36,1.67,1.34,1.8,.46,.07,1.18,.13,1.47,.13,.2,0,.26,.1,.26,.2,0,.16-.16,.26-.52,.26-1.8,0-3.86-.1-4.03-.1s-2.23,.1-3.21,.1c-.36,0-.52-.07-.52-.26,0-.1,.07-.2,.26-.2,.29,0,.69-.07,.98-.13,.66-.13,.95-.85,1.01-1.8,.1-1.38,.1-2.75,.1-3.27v-2.82Z"/><path class="cls-1" d="M39.01,20.26c0,4.71,1.05,6.74,2.45,8.08,1.6,1.51,3.08,1.8,4.94,1.8,2,0,3.96-.95,5.14-2.36,1.51-1.87,1.9-4.65,1.9-8.02v-4.09c0-5.11,0-6.02-.07-7.07-.07-1.11-.33-1.64-1.41-1.87-.26-.07-.82-.1-1.11-.1-.13,0-.26-.07-.26-.2,0-.2,.16-.26,.52-.26,1.47,0,3.27,.1,3.47,.1,.23,0,1.77-.1,2.75-.1,.36,0,.52,.07,.52,.26,0,.13-.13,.2-.26,.2-.23,0-.43,.03-.82,.1-.88,.2-1.15,.72-1.21,1.87-.07,1.05-.07,1.96-.07,7.07v3.5c0,3.53-.39,7.46-3.01,9.79-2.36,2.09-4.81,2.42-6.74,2.42-1.11,0-4.42-.13-6.74-2.32-1.6-1.54-2.85-3.83-2.85-8.61v-4.78c0-5.11,0-6.02-.07-7.07-.07-1.11-.33-1.64-1.41-1.87-.26-.07-.82-.1-1.11-.1-.13,0-.26-.07-.26-.2,0-.2,.16-.26,.52-.26,1.47,0,3.47,.1,3.76,.1s2.26-.1,3.24-.1c.36,0,.52,.07,.52,.26,0,.13-.13,.2-.26,.2-.23,0-.43,.03-.82,.1-.88,.13-1.15,.72-1.21,1.87-.07,1.05-.07,1.96-.07,7.07v4.58Z"/><path class="cls-1" d="M71.77,15.68c0-5.11,0-6.02-.07-7.07-.07-1.11-.33-1.64-1.41-1.87-.26-.07-.82-.1-1.11-.1-.13,0-.26-.07-.26-.2,0-.2,.16-.26,.52-.26,1.47,0,3.54,.1,3.7,.1,.36,0,2.85-.1,3.86-.1,2.06,0,4.25,.2,5.99,1.44,.82,.59,2.26,2.19,2.26,4.45,0,2.42-1.01,4.84-3.96,7.56,2.68,3.44,4.91,6.35,6.81,8.38,1.77,1.87,3.17,2.23,3.99,2.36,.62,.1,1.08,.1,1.28,.1,.16,0,.29,.1,.29,.2,0,.2-.2,.26-.79,.26h-2.32c-1.83,0-2.65-.16-3.5-.62-1.41-.75-2.55-2.36-4.42-4.81-1.38-1.8-2.91-3.99-3.57-4.84-.13-.13-.23-.2-.43-.2l-4.03-.07c-.16,0-.23,.1-.23,.26v.79c0,3.14,0,5.73,.16,7.1,.1,.95,.29,1.67,1.28,1.8,.46,.07,1.18,.13,1.47,.13,.2,0,.26,.1,.26,.2,0,.16-.16,.26-.52,.26-1.8,0-3.86-.1-4.03-.1-.03,0-2.09,.1-3.08,.1-.36,0-.52-.07-.52-.26,0-.1,.07-.2,.26-.2,.29,0,.69-.07,.98-.13,.66-.13,.82-.85,.95-1.8,.16-1.38,.16-3.96,.16-7.1v-5.76Zm2.62,2.85c0,.16,.07,.29,.23,.39,.49,.29,2,.52,3.44,.52,.79,0,1.7-.1,2.45-.62,1.15-.79,2-2.55,2-5.04,0-4.09-2.16-6.55-5.66-6.55-.98,0-1.87,.1-2.19,.2-.16,.07-.26,.2-.26,.39v10.7Z"/><path class="cls-1" d="M108.55,21.27c-.16,0-.26,.1-.33,.26l-1.96,5.79c-.29,.82-.46,1.6-.46,2.19,0,.65,.62,.95,1.18,.95h.29c.33,0,.43,.07,.43,.2,0,.2-.29,.26-.59,.26-.79,0-2.09-.1-2.46-.1s-2.16,.1-3.7,.1c-.43,0-.62-.07-.62-.26,0-.13,.16-.2,.46-.2,.23,0,.52-.03,.79-.07,1.5-.2,2.16-1.44,2.75-3.08l7.43-20.33c.39-1.08,.52-1.28,.72-1.28s.33,.16,.72,1.18c.49,1.24,5.63,14.76,7.63,19.74,1.18,2.91,2.13,3.44,2.81,3.63,.49,.16,1.01,.2,1.28,.2,.2,0,.36,.03,.36,.2,0,.2-.29,.26-.65,.26-.49,0-2.88,0-5.14-.07-.62-.03-.98-.03-.98-.23,0-.13,.1-.2,.23-.23,.2-.07,.39-.36,.2-.88l-3.04-8.05c-.07-.13-.13-.2-.29-.2h-7.04Zm6.61-1.18c.16,0,.16-.1,.13-.23l-3.11-8.84c-.16-.49-.33-.49-.49,0l-2.88,8.84c-.07,.16,0,.23,.1,.23h6.25Z"/><path class="cls-1" d="M154.8,28.15c0,1.47-.03,1.54-.43,1.77-2.09,1.11-5.04,1.47-6.94,1.47-2.49,0-7.13-.33-10.77-3.5-2-1.73-3.89-5.24-3.89-9.33,0-5.24,2.55-8.94,5.47-10.77,2.95-1.83,6.19-2.06,8.71-2.06,2.06,0,4.39,.42,5.01,.56,.69,.16,1.83,.29,2.65,.33,.33,.03,.39,.16,.39,.29,0,.46-.23,1.38-.23,4.65,0,.52-.07,.69-.29,.69-.16,0-.2-.2-.23-.49-.03-.46-.2-1.38-.69-2.16-.82-1.24-3.47-2.65-7.69-2.65-2.06,0-4.52,.2-7,2.16-1.9,1.51-3.24,4.48-3.24,8.31,0,4.62,2.32,7.95,3.47,9.07,2.58,2.52,5.56,3.5,8.58,3.5,1.18,0,2.88-.2,3.73-.69,.43-.23,.66-.59,.66-1.15v-5.56c0-2.65-.16-3.01-1.47-3.37-.26-.07-.82-.1-1.11-.1-.13,0-.26-.07-.26-.2,0-.2,.16-.26,.52-.26,1.47,0,3.54,.1,3.7,.1s2.23-.1,3.21-.1c.36,0,.52,.07,.52,.26,0,.13-.13,.2-.26,.2-.23,0-.43,.03-.82,.1-.88,.16-1.15,.72-1.21,1.87-.07,1.05-.07,2.03-.07,3.4v3.67Z"/><path class="cls-1" d="M171.26,15.68c0-5.11,0-6.02-.07-7.07-.07-1.11-.39-1.67-1.11-1.83-.36-.1-.79-.13-1.01-.13-.13,0-.26-.07-.26-.2,0-.2,.16-.26,.52-.26,1.08,0,3.14,.1,3.31,.1s2.23-.1,3.21-.1c.36,0,.52,.07,.52,.26,0,.13-.13,.2-.26,.2-.23,0-.43,.03-.82,.1-.88,.16-1.15,.72-1.21,1.87-.07,1.05-.07,1.96-.07,7.07v5.76c0,3.14,0,5.73,.16,7.1,.1,.95,.29,1.67,1.28,1.8,.46,.07,1.15,.13,1.34,.13,.29,0,.39,.1,.39,.2,0,.16-.13,.26-.49,.26-1.8,0-3.89-.1-4.06-.1s-2.23,.1-3.21,.1c-.36,0-.52-.07-.52-.26,0-.1,.07-.2,.36-.2,.2,0,.56-.03,.85-.1,.65-.13,.85-.88,.98-1.83,.16-1.38,.16-3.96,.16-7.1v-5.76Z"/><path class="cls-1" d="M233.73,26.71c.13,1.18,.36,3.01,1.77,3.47,.95,.29,1.7,.29,2.03,.29,.16,0,.36,.03,.36,.2,0,.2-.1,.26-.49,.26-.72,0-4.45-.1-5.66-.2-.75-.07-.92-.16-.92-.33,0-.13,.07-.16,.23-.23,.23-.1,.2-.59,.13-1.18l-1.57-17.08-8.12,17.22c-.69,1.44-.79,1.74-1.08,1.74-.23,0-.39-.33-1.01-1.51-.85-1.6-3.67-7.27-3.83-7.59-.29-.59-4.06-8.67-4.42-9.56l-1.34,15.42c-.03,.52-.07,.98-.07,1.54,0,.82,.39,1.08,.88,1.18,.56,.13,.98,.13,1.18,.13s.33,.07,.33,.16c0,.23-.16,.29-.49,.29-1.21,0-2.88-.1-3.14-.1-.29,0-1.87,.1-2.75,.1-.33,0-.56-.03-.56-.26,0-.13,.16-.2,.33-.2,.26,0,.49,0,.98-.1,1.08-.2,1.15-1.38,1.31-2.72l2.36-21.27c.03-.36,.16-.65,.36-.65s.33,.13,.49,.49l10.01,20.59,9.62-20.55c.13-.29,.26-.52,.49-.52s.33,.26,.39,.88l2.19,20.1Z"/><path class="cls-1" d="M252.12,21.27c-.16,0-.26,.1-.33,.26l-1.96,5.79c-.29,.82-.46,1.6-.46,2.19,0,.65,.62,.95,1.18,.95h.29c.33,0,.43,.07,.43,.2,0,.2-.29,.26-.59,.26-.79,0-2.09-.1-2.46-.1s-2.16,.1-3.7,.1c-.43,0-.62-.07-.62-.26,0-.13,.16-.2,.46-.2,.23,0,.52-.03,.79-.07,1.5-.2,2.16-1.44,2.75-3.08l7.43-20.33c.39-1.08,.52-1.28,.72-1.28s.33,.16,.72,1.18c.49,1.24,5.63,14.76,7.63,19.74,1.18,2.91,2.13,3.44,2.81,3.63,.49,.16,1.01,.2,1.28,.2,.2,0,.36,.03,.36,.2,0,.2-.29,.26-.65,.26-.49,0-2.88,0-5.14-.07-.62-.03-.98-.03-.98-.23,0-.13,.1-.2,.23-.23,.2-.07,.39-.36,.2-.88l-3.04-8.05c-.07-.13-.13-.2-.29-.2h-7.04Zm6.61-1.18c.16,0,.16-.1,.13-.23l-3.11-8.84c-.16-.49-.33-.49-.49,0l-2.88,8.84c-.07,.16,0,.23,.1,.23h6.25Z"/><path class="cls-1" d="M280.07,15.68c0-5.11,0-6.02-.07-7.07-.07-1.11-.33-1.64-1.41-1.87-.26-.07-.82-.1-1.11-.1-.13,0-.26-.07-.26-.2,0-.2,.16-.26,.52-.26,1.47,0,3.54,.1,3.7,.1,.36,0,2.85-.1,3.86-.1,2.06,0,4.25,.2,5.99,1.44,.82,.59,2.26,2.19,2.26,4.45,0,2.42-1.01,4.84-3.96,7.56,2.68,3.44,4.91,6.35,6.81,8.38,1.77,1.87,3.17,2.23,3.99,2.36,.62,.1,1.08,.1,1.28,.1,.16,0,.29,.1,.29,.2,0,.2-.2,.26-.79,.26h-2.32c-1.83,0-2.65-.16-3.5-.62-1.41-.75-2.55-2.36-4.42-4.81-1.38-1.8-2.91-3.99-3.57-4.84-.13-.13-.23-.2-.43-.2l-4.03-.07c-.16,0-.23,.1-.23,.26v.79c0,3.14,0,5.73,.16,7.1,.1,.95,.29,1.67,1.28,1.8,.46,.07,1.18,.13,1.47,.13,.2,0,.26,.1,.26,.2,0,.16-.16,.26-.52,.26-1.8,0-3.86-.1-4.03-.1-.03,0-2.09,.1-3.08,.1-.36,0-.52-.07-.52-.26,0-.1,.07-.2,.26-.2,.29,0,.69-.07,.98-.13,.66-.13,.82-.85,.95-1.8,.16-1.38,.16-3.96,.16-7.1v-5.76Zm2.62,2.85c0,.16,.07,.29,.23,.39,.49,.29,2,.52,3.44,.52,.79,0,1.7-.1,2.45-.62,1.15-.79,2-2.55,2-5.04,0-4.09-2.16-6.55-5.66-6.55-.98,0-1.87,.1-2.19,.2-.16,.07-.26,.2-.26,.39v10.7Z"/><path class="cls-1" d="M311.68,27.85c-3.17-2.85-3.96-6.58-3.96-9.69,0-2.19,.75-6.02,3.67-8.94,1.96-1.96,4.94-3.5,9.98-3.5,1.31,0,3.14,.1,4.75,.39,1.24,.23,2.26,.33,3.47,.49,.23,.03,.29,.16,.29,.36,0,.26-.1,.66-.16,1.83-.07,1.08-.07,2.88-.1,3.37-.03,.49-.1,.69-.29,.69-.23,0-.26-.23-.26-.69,0-1.28-.52-2.62-1.37-3.34-1.15-.98-3.67-1.87-6.55-1.87-4.35,0-6.38,1.28-7.53,2.39-2.39,2.29-2.95,5.2-2.95,8.54,0,6.25,4.81,11.98,11.82,11.98,2.45,0,4.39-.29,5.69-1.64,.69-.72,1.11-2.16,1.21-2.75,.07-.36,.13-.49,.33-.49,.16,0,.23,.23,.23,.49,0,.23-.39,3.08-.72,4.19-.2,.62-.26,.69-.85,.95-1.31,.52-3.8,.75-5.89,.75-4.91,0-8.22-1.21-10.8-3.54Z"/><path class="cls-1" d="M360.51,16.56c.1,0,.2-.03,.2-.2v-.69c0-5.11,0-6.02-.07-7.07-.07-1.11-.33-1.64-1.41-1.87-.26-.07-.82-.1-1.11-.1-.13,0-.26-.07-.26-.2,0-.2,.16-.26,.52-.26,1.47,0,3.54,.1,3.7,.1s2.23-.1,3.21-.1c.36,0,.52,.07,.52,.26,0,.13-.13,.2-.26,.2-.23,0-.42,.03-.82,.1-.88,.16-1.15,.72-1.21,1.87-.07,1.05-.07,1.96-.07,7.07v5.76c0,3.14,0,5.73,.16,7.1,.1,.95,.29,1.67,1.28,1.8,.46,.07,1.18,.13,1.47,.13,.2,0,.26,.1,.26,.2,0,.16-.16,.26-.52,.26-1.8,0-3.86-.1-4.03-.1s-2.23,.1-3.21,.1c-.36,0-.52-.07-.52-.26,0-.1,.07-.2,.26-.2,.29,0,.69-.07,.98-.13,.66-.13,.82-.85,.95-1.8,.16-1.38,.16-3.96,.16-7.1v-3.44c0-.13-.1-.2-.2-.2h-13.88c-.1,0-.2,.03-.2,.2v3.44c0,3.14,0,5.73,.16,7.1,.1,.95,.29,1.67,1.28,1.8,.46,.07,1.18,.13,1.47,.13,.2,0,.26,.1,.26,.2,0,.16-.16,.26-.52,.26-1.8,0-3.86-.1-4.03-.1s-2.23,.1-3.21,.1c-.36,0-.52-.07-.52-.26,0-.1,.07-.2,.26-.2,.29,0,.69-.07,.98-.13,.66-.13,.82-.85,.95-1.8,.16-1.38,.16-3.96,.16-7.1v-5.76c0-5.11,0-6.02-.07-7.07-.07-1.11-.33-1.64-1.41-1.87-.26-.07-.82-.1-1.11-.1-.13,0-.26-.07-.26-.2,0-.2,.16-.26,.52-.26,1.47,0,3.54,.1,3.7,.1s2.23-.1,3.21-.1c.36,0,.52,.07,.52,.26,0,.13-.13,.2-.26,.2-.23,0-.43,.03-.82,.1-.88,.16-1.15,.72-1.21,1.87-.07,1.05-.07,1.96-.07,7.07v.69c0,.16,.1,.2,.2,.2h13.88Z"/><path class="cls-1" d="M381.58,15.68c0-5.11,0-6.02-.07-7.07-.07-1.11-.33-1.64-1.41-1.87-.23-.07-.66-.07-.95-.1-.23-.03-.43-.07-.43-.2,0-.2,.16-.26,.52-.26,.75,0,1.64,0,3.7,.1,.23,0,6.74,0,7.5-.03,.72-.03,1.31-.1,1.5-.2,.2-.1,.26-.13,.36-.13s.13,.13,.13,.29c0,.23-.2,.62-.26,1.54-.03,.49-.07,1.11-.13,1.96-.03,.33-.13,.56-.26,.56-.2,0-.26-.16-.26-.42,0-.43-.07-.82-.16-1.08-.23-.75-.92-1.08-2.36-1.21-.56-.07-4.12-.1-4.48-.1-.13,0-.2,.1-.2,.33v9.03c0,.23,.03,.33,.2,.33,.43,0,4.45,0,5.2-.07,.88-.07,1.31-.16,1.64-.56,.16-.2,.26-.33,.39-.33,.1,0,.16,.07,.16,.26s-.16,.75-.26,1.83c-.1,1.01-.1,1.77-.13,2.23-.03,.33-.1,.49-.23,.49-.2,0-.23-.26-.23-.52,0-.29-.03-.62-.13-.92-.13-.49-.52-.95-1.7-1.08-.88-.1-4.12-.16-4.68-.16-.16,0-.23,.1-.23,.23v2.88c0,1.11-.03,4.91,0,5.6,.07,1.34,.26,2.06,1.08,2.39,.56,.23,1.44,.29,2.72,.29,.98,0,2.06-.03,2.95-.29,1.05-.33,1.41-1.01,1.67-2.42,.07-.36,.13-.49,.29-.49,.2,0,.2,.26,.2,.49,0,.26-.26,2.49-.42,3.17-.23,.85-.49,.85-1.77,.85-2.42,0-3.5-.07-4.78-.1-1.31-.03-2.82-.1-4.09-.1-.79,0-1.57,.13-2.42,.1-.36,0-.52-.07-.52-.26,0-.1,.16-.16,.36-.2,.33-.03,.52-.03,.75-.1,.69-.16,1.11-.62,1.18-3.08,.03-1.28,.07-2.95,.07-5.86v-5.76Zm9.88-14.11c.16,.33,0,.43-.13,.43s-.82,.07-1.34,.26c-1.64,.59-3.53,1.47-4.65,2-.23,.1-.46,.2-.52,.2s-.2-.07-.2-.13c0-.1,.1-.23,.26-.39,.92-.85,3.17-2.85,4.03-3.4,.46-.33,.82-.52,.95-.52,.16,0,.33,.03,.56,.26,.33,.29,.75,.72,1.05,1.31Z"/></g></g></svg>